<svg width="221" height="62" viewBox="0 0 221 62" fill="none" xmlns="http://www.w3.org/2000/svg">
<path d="M80.636 20.92C81.7747 21.1627 82.6893 21.732 83.38 22.628C84.0707 23.5053 84.416 24.5133 84.416 25.652C84.416 27.2947 83.8373 28.6013 82.68 29.572C81.5413 30.524 79.9453 31 77.892 31H68.736V11.344H77.584C79.5813 11.344 81.14 11.8013 82.26 12.716C83.3987 13.6307 83.968 14.872 83.968 16.44C83.968 17.5973 83.66 18.5587 83.044 19.324C82.4467 20.0893 81.644 20.6213 80.636 20.92ZM73.524 19.296H76.66C77.444 19.296 78.0413 19.128 78.452 18.792C78.8813 18.4373 79.096 17.924 79.096 17.252C79.096 16.58 78.8813 16.0667 78.452 15.712C78.0413 15.3573 77.444 15.18 76.66 15.18H73.524V19.296ZM77.052 27.136C77.8547 27.136 78.4707 26.9587 78.9 26.604C79.348 26.2307 79.572 25.6987 79.572 25.008C79.572 24.3173 79.3387 23.776 78.872 23.384C78.424 22.992 77.7987 22.796 76.996 22.796H73.524V27.136H77.052ZM93.297 11.344V23.104C93.297 24.28 93.5864 25.1853 94.165 25.82C94.7437 26.4547 95.593 26.772 96.713 26.772C97.833 26.772 98.6917 26.4547 99.289 25.82C99.8864 25.1853 100.185 24.28 100.185 23.104V11.344H104.973V23.076C104.973 24.8307 104.6 26.3147 103.853 27.528C103.106 28.7413 102.098 29.656 100.829 30.272C99.5784 30.888 98.1784 31.196 96.629 31.196C95.0797 31.196 93.689 30.8973 92.457 30.3C91.2437 29.684 90.2824 28.7693 89.573 27.556C88.8637 26.324 88.509 24.8307 88.509 23.076V11.344H93.297ZM114.523 11.344V31H109.735V11.344H114.523ZM124.181 27.304H130.453V31H119.393V11.344H124.181V27.304ZM141.501 11.344C143.573 11.344 145.383 11.7547 146.933 12.576C148.482 13.3973 149.677 14.5547 150.517 16.048C151.375 17.5227 151.805 19.2307 151.805 21.172C151.805 23.0947 151.375 24.8027 150.517 26.296C149.677 27.7893 148.473 28.9467 146.905 29.768C145.355 30.5893 143.554 31 141.501 31H134.137V11.344H141.501ZM141.193 26.856C143.003 26.856 144.413 26.3613 145.421 25.372C146.429 24.3827 146.933 22.9827 146.933 21.172C146.933 19.3613 146.429 17.952 145.421 16.944C144.413 15.936 143.003 15.432 141.193 15.432H138.925V26.856H141.193ZM172.737 11.344L165.933 24.504V31H161.145V24.504L154.341 11.344H159.773L163.581 19.576L167.361 11.344H172.737ZM201.851 11.344L194.879 31H188.887L181.915 11.344H187.011L191.883 26.184L196.783 11.344H201.851ZM220.232 17.672C220.232 18.8107 219.971 19.856 219.448 20.808C218.926 21.7413 218.123 22.4973 217.04 23.076C215.958 23.6547 214.614 23.944 213.008 23.944H210.04V31H205.252V11.344H213.008C214.576 11.344 215.902 11.6147 216.984 12.156C218.067 12.6973 218.879 13.444 219.42 14.396C219.962 15.348 220.232 16.44 220.232 17.672ZM212.644 20.136C213.559 20.136 214.24 19.9213 214.688 19.492C215.136 19.0627 215.36 18.456 215.36 17.672C215.36 16.888 215.136 16.2813 214.688 15.852C214.24 15.4227 213.559 15.208 212.644 15.208H210.04V20.136H212.644Z" fill="white"/>
<path d="M74.104 56L71.448 51.44H69.688V56H68.232V44.848H71.832C72.6747 44.848 73.384 44.992 73.96 45.28C74.5467 45.568 74.984 45.9573 75.272 46.448C75.56 46.9387 75.704 47.4987 75.704 48.128C75.704 48.896 75.48 49.5733 75.032 50.16C74.5947 50.7467 73.9333 51.136 73.048 51.328L75.848 56H74.104ZM69.688 50.272H71.832C72.6213 50.272 73.2133 50.08 73.608 49.696C74.0027 49.3013 74.2 48.7787 74.2 48.128C74.2 47.4667 74.0027 46.9547 73.608 46.592C73.224 46.2293 72.632 46.048 71.832 46.048H69.688V50.272ZM80.2224 46.032V49.76H84.2864V50.96H80.2224V54.8H84.7664V56H78.7664V44.832H84.7664V46.032H80.2224ZM94.3615 53.52H89.4975L88.6015 56H87.0655L91.0975 44.912H92.7775L96.7935 56H95.2575L94.3615 53.52ZM93.9455 52.336L91.9295 46.704L89.9135 52.336H93.9455ZM100.807 54.816H104.711V56H99.3507V44.848H100.807V54.816ZM113.579 46.032V49.76H117.643V50.96H113.579V54.8H118.123V56H112.123V44.832H118.123V46.032H113.579ZM124.662 56.112C123.926 56.112 123.264 55.984 122.678 55.728C122.102 55.4613 121.648 55.0987 121.318 54.64C120.987 54.1707 120.816 53.632 120.806 53.024H122.358C122.411 53.5467 122.624 53.9893 122.998 54.352C123.382 54.704 123.936 54.88 124.662 54.88C125.355 54.88 125.899 54.7093 126.294 54.368C126.699 54.016 126.902 53.568 126.902 53.024C126.902 52.5973 126.784 52.2507 126.55 51.984C126.315 51.7173 126.022 51.5147 125.67 51.376C125.318 51.2373 124.843 51.088 124.246 50.928C123.51 50.736 122.918 50.544 122.47 50.352C122.032 50.16 121.654 49.8613 121.334 49.456C121.024 49.04 120.87 48.4853 120.87 47.792C120.87 47.184 121.024 46.6453 121.334 46.176C121.643 45.7067 122.075 45.344 122.63 45.088C123.195 44.832 123.84 44.704 124.566 44.704C125.611 44.704 126.464 44.9653 127.126 45.488C127.798 46.0107 128.176 46.704 128.262 47.568H126.662C126.608 47.1413 126.384 46.768 125.99 46.448C125.595 46.1173 125.072 45.952 124.422 45.952C123.814 45.952 123.318 46.112 122.934 46.432C122.55 46.7413 122.358 47.1787 122.358 47.744C122.358 48.1493 122.47 48.48 122.694 48.736C122.928 48.992 123.211 49.1893 123.542 49.328C123.883 49.456 124.358 49.6053 124.966 49.776C125.702 49.9787 126.294 50.1813 126.742 50.384C127.19 50.576 127.574 50.88 127.894 51.296C128.214 51.7013 128.374 52.256 128.374 52.96C128.374 53.504 128.23 54.016 127.942 54.496C127.654 54.976 127.227 55.3653 126.662 55.664C126.096 55.9627 125.43 56.112 124.662 56.112ZM138.18 44.848V46.032H135.14V56H133.684V46.032H130.628V44.848H138.18ZM147.365 53.52H142.501L141.605 56H140.069L144.101 44.912H145.781L149.797 56H148.261L147.365 53.52ZM146.949 52.336L144.933 46.704L142.917 52.336H146.949ZM159.218 44.848V46.032H156.178V56H154.722V46.032H151.666V44.848H159.218ZM163.266 46.032V49.76H167.33V50.96H163.266V54.8H167.81V56H161.81V44.832H167.81V46.032H163.266Z" fill="#CBCBCB"/>
<path d="M7.22684 30.2417V61.0001H0V36.899L7.22684 30.2417Z" fill="white"/>
<path d="M7.22681 30.2417V61.0001H14.3706V35.3821L7.22681 30.2417Z" fill="#CBCBCB"/>
<path d="M21.3482 17.7695V60.9999H11.7955V26.8707L21.3482 17.7695Z" fill="white"/>
<path d="M21.3481 17.7695V60.9999H30.9839V24.5954L21.3481 17.7695Z" fill="#CBCBCB"/>
<path d="M39.1246 1V61H26.1661V14.736L39.1246 1Z" fill="white"/>
<path d="M39.1246 1V61H52V14.736L39.1246 1Z" fill="#CBCBCB"/>
</svg>
