<svg xmlns="http://www.w3.org/2000/svg" width="221" height="62" fill="none" viewBox="0 0 221 62"><path fill="#fff" d="M80.636 20.92q1.708.364 2.744 1.708 1.035 1.316 1.036 3.024 0 2.465-1.736 3.92Q80.972 31 77.892 31h-9.156V11.344h8.848q2.996 0 4.676 1.372 1.708 1.372 1.708 3.724 0 1.736-.924 2.884-.896 1.148-2.408 1.596m-7.112-1.624h3.136q1.176 0 1.792-.504.645-.532.644-1.54 0-1.008-.644-1.54-.615-.532-1.792-.532h-3.136zm3.528 7.84q1.204 0 1.848-.532.672-.56.672-1.596 0-1.035-.7-1.624-.672-.588-1.876-.588h-3.472v4.34zm16.245-15.792v11.76q0 1.764.868 2.716t2.548.952 2.576-.952.896-2.716v-11.76h4.788v11.732q0 2.633-1.12 4.452a7.16 7.16 0 0 1-3.024 2.744q-1.875.924-4.2.924t-4.172-.896q-1.82-.923-2.884-2.744-1.064-1.848-1.064-4.48V11.344zm21.226 0V31h-4.788V11.344zm9.658 15.96h6.272V31h-11.06V11.344h4.788zm17.32-15.96q3.108 0 5.432 1.232t3.584 3.472q1.288 2.213 1.288 5.124 0 2.884-1.288 5.124-1.26 2.24-3.612 3.472Q144.58 31 141.501 31h-7.364V11.344zm-.308 15.512q2.715 0 4.228-1.484 1.512-1.485 1.512-4.2t-1.512-4.228q-1.513-1.512-4.228-1.512h-2.268v11.424zm31.544-15.512-6.804 13.16V31h-4.788v-6.496l-6.804-13.16h5.432l3.808 8.232 3.78-8.232zm29.114 0L194.879 31h-5.992l-6.972-19.656h5.096l4.872 14.84 4.9-14.84zm18.381 6.328q0 1.708-.784 3.136-.783 1.4-2.408 2.268-1.623.868-4.032.868h-2.968V31h-4.788V11.344h7.756q2.352 0 3.976.812t2.436 2.24.812 3.276m-7.588 2.464q1.372 0 2.044-.644.672-.645.672-1.82t-.672-1.82-2.044-.644h-2.604v4.928z"/><path fill="#CBCBCB" d="m74.104 56-2.656-4.56h-1.76V56h-1.456V44.848h3.6q1.264 0 2.128.432.88.432 1.312 1.168.432.735.432 1.68 0 1.152-.672 2.032-.656.88-1.984 1.168l2.8 4.672zm-4.416-5.728h2.144q1.184 0 1.776-.576.592-.592.592-1.568 0-.991-.592-1.536-.576-.544-1.776-.544h-2.144zm10.534-4.24v3.728h4.064v1.2h-4.064v3.84h4.544V56h-6V44.832h6v1.2zm14.14 7.488h-4.864L88.6 56h-1.535l4.031-11.088h1.68L96.794 56h-1.536zm-.416-1.184-2.016-5.632-2.017 5.632zm6.861 2.48h3.904V56h-5.36V44.848h1.456zm12.772-8.784v3.728h4.064v1.2h-4.064v3.84h4.544V56h-6V44.832h6v1.2zm11.083 10.08q-1.105 0-1.984-.384-.864-.4-1.36-1.088a2.8 2.8 0 0 1-.512-1.616h1.552q.08.784.64 1.328.575.528 1.664.528 1.04 0 1.632-.512.608-.528.608-1.344 0-.64-.352-1.04a2.25 2.25 0 0 0-.88-.608 14 14 0 0 0-1.424-.448q-1.104-.288-1.776-.576a2.95 2.95 0 0 1-1.136-.896q-.465-.623-.464-1.664 0-.912.464-1.616.463-.704 1.296-1.088.847-.384 1.936-.384 1.567 0 2.56.784 1.008.784 1.136 2.08h-1.6q-.081-.64-.672-1.12-.593-.495-1.568-.496-.912 0-1.488.48-.576.465-.576 1.312 0 .608.336.992.351.384.848.592.512.192 1.424.448 1.104.304 1.776.608.672.288 1.152.912.48.608.48 1.664 0 .816-.432 1.536t-1.28 1.168q-.849.448-2 .448m13.518-11.264v1.184h-3.04V56h-1.456v-9.968h-3.056v-1.184zm9.185 8.672h-4.864l-.896 2.48h-1.536l4.032-11.088h1.68L149.797 56h-1.536zm-.416-1.184-2.016-5.632-2.016 5.632zm12.269-7.488v1.184h-3.04V56h-1.456v-9.968h-3.056v-1.184zm4.048 1.184v3.728h4.064v1.2h-4.064v3.84h4.544V56h-6V44.832h6v1.2z"/><path fill="#fff" d="M7.227 30.242V61H0V36.9z"/><path fill="#CBCBCB" d="M7.227 30.242V61h7.144V35.382z"/><path fill="#fff" d="M21.348 17.77V61h-9.552V26.87z"/><path fill="#CBCBCB" d="M21.348 17.77V61h9.636V24.595z"/><path fill="#fff" d="M39.125 1v60H26.166V14.736z"/><path fill="#CBCBCB" d="M39.125 1v60H52V14.736z"/></svg>